<svg width="20" height="24" viewBox="0 0 20 24" fill="none" xmlns="http://www.w3.org/2000/svg">
<g clip-path="url(#clip0_4118_5667)">
<path d="M10.5614 1.57181C10.214 1.37124 9.78599 1.37124 9.43859 1.57181L1.24943 6.29982C0.90203 6.5004 0.688019 6.87107 0.688019 7.27222V16.7282C0.688019 17.1294 0.902029 17.5 1.24943 17.7006L9.43859 22.4286C9.78599 22.6292 10.214 22.6292 10.5614 22.4286L18.7506 17.7006C19.098 17.5 19.312 17.1294 19.312 16.7282V7.27222C19.312 6.87107 19.098 6.5004 18.7506 6.29982L10.5614 1.57181Z" fill="#14CB3B" stroke="white" stroke-width="1.30345"/>
<mask id="mask0_4118_5667" style="mask-type:luminance" maskUnits="userSpaceOnUse" x="4" y="6" width="12" height="12">
<path d="M15.9396 6.59961H4.59961V17.3996H15.9396V6.59961Z" fill="white"/>
</mask>
<g mask="url(#mask0_4118_5667)">
<path d="M5.06543 7.43945L6.5721 7.70534L6.71976 9.53692H14.4304C14.4304 9.53692 15.573 9.38023 15.1394 10.6301C14.6372 12.0777 14.1055 13.4957 14.1055 13.4957C14.1055 13.4957 13.8098 14.5003 12.6282 14.5003C11.4466 14.5003 6.66055 14.5003 6.66055 14.5003" stroke="white" stroke-width="0.576967" stroke-miterlimit="10" stroke-linecap="round" stroke-linejoin="round"/>
<path d="M12.6467 11.7603C12.9955 11.7603 13.2783 11.4775 13.2783 11.1287C13.2783 10.7799 12.9955 10.4971 12.6467 10.4971C12.2979 10.4971 12.0151 10.7799 12.0151 11.1287C12.0151 11.4775 12.2979 11.7603 12.6467 11.7603Z" fill="white"/>
<path d="M7.72775 16.8565C8.07655 16.8565 8.35931 16.5737 8.35931 16.2249C8.35931 15.8761 8.07655 15.5933 7.72775 15.5933C7.37895 15.5933 7.09619 15.8761 7.09619 16.2249C7.09619 16.5737 7.37895 16.8565 7.72775 16.8565Z" fill="white"/>
<path d="M13.2229 16.8565C13.5717 16.8565 13.8544 16.5737 13.8544 16.2249C13.8544 15.8761 13.5717 15.5933 13.2229 15.5933C12.8741 15.5933 12.5913 15.8761 12.5913 16.2249C12.5913 16.5737 12.8741 16.8565 13.2229 16.8565Z" fill="white"/>
<path d="M12.192 13.0893C12.192 13.0893 10.5081 13.6875 9.8877 12.0479" stroke="white" stroke-width="0.576967" stroke-miterlimit="10" stroke-linecap="round" stroke-linejoin="round"/>
<path d="M5.13916 11.1841H8.20412" stroke="white" stroke-width="0.576967" stroke-miterlimit="10" stroke-linecap="round" stroke-linejoin="round"/>
<path d="M5.6792 12.8677H8.20416" stroke="white" stroke-width="0.576967" stroke-miterlimit="10" stroke-linecap="round" stroke-linejoin="round"/>
</g>
</g>
<defs>
<clipPath id="clip0_4118_5667">
<rect width="20" height="24" fill="white"/>
</clipPath>
</defs>
</svg>
